<?xml version="1.0" encoding="UTF-8" standalone="no"?>
<svg width="800" height="450" viewBox="0 0 800 450" fill="none" xmlns="http://www.w3.org/2000/svg">
  <!-- Dark background -->
  <rect width="800" height="450" rx="12" fill="#0a0a0a" />
  
  <!-- Header -->
  <text x="40" y="50" font-family="sans-serif" font-size="26" font-weight="bold" fill="#ffffff">
    CodonScope
  </text>
  <text x="220" y="50" font-family="sans-serif" font-size="16" fill="#9ca3af">
    DNA Analysis &amp; Visualization
  </text>
  
  <!-- DNA Sequence -->
  <rect x="40" y="80" width="720" height="100" rx="6" fill="#1e1e1e" />
  
  <!-- DNA Visualization -->
  <g transform="translate(60, 110)">
    <!-- Base A -->
    <rect x="0" y="0" width="40" height="40" rx="4" fill="#4ade80" opacity="0.8" />
    <text x="14" y="26" font-family="monospace" font-size="18" font-weight="bold" fill="white">A</text>
    
    <!-- Base T -->
    <rect x="50" y="0" width="40" height="40" rx="4" fill="#ef4444" opacity="0.8" />
    <text x="64" y="26" font-family="monospace" font-size="18" font-weight="bold" fill="white">T</text>
    
    <!-- Base G -->
    <rect x="100" y="0" width="40" height="40" rx="4" fill="#facc15" opacity="0.8" />
    <text x="114" y="26" font-family="monospace" font-size="18" font-weight="bold" fill="white">G</text>
    
    <!-- Bases -->
    <rect x="150" y="0" width="40" height="40" rx="4" fill="#3b82f6" opacity="0.8" />
    <text x="164" y="26" font-family="monospace" font-size="18" font-weight="bold" fill="white">C</text>
    
    <rect x="200" y="0" width="40" height="40" rx="4" fill="#4ade80" opacity="0.8" />
    <text x="214" y="26" font-family="monospace" font-size="18" font-weight="bold" fill="white">A</text>
    
    <rect x="250" y="0" width="40" height="40" rx="4" fill="#ef4444" opacity="0.8" />
    <text x="264" y="26" font-family="monospace" font-size="18" font-weight="bold" fill="white">T</text>
    
    <rect x="300" y="0" width="40" height="40" rx="4" fill="#4ade80" opacity="0.8" />
    <text x="314" y="26" font-family="monospace" font-size="18" font-weight="bold" fill="white">A</text>
    
    <rect x="350" y="0" width="40" height="40" rx="4" fill="#3b82f6" opacity="0.8" />
    <text x="364" y="26" font-family="monospace" font-size="18" font-weight="bold" fill="white">C</text>
    
    <rect x="400" y="0" width="40" height="40" rx="4" fill="#facc15" opacity="0.8" />
    <text x="414" y="26" font-family="monospace" font-size="18" font-weight="bold" fill="white">G</text>
    
    <rect x="450" y="0" width="40" height="40" rx="4" fill="#ef4444" opacity="0.8" />
    <text x="464" y="26" font-family="monospace" font-size="18" font-weight="bold" fill="white">T</text>
    
    <rect x="500" y="0" width="40" height="40" rx="4" fill="#ef4444" opacity="0.8" />
    <text x="514" y="26" font-family="monospace" font-size="18" font-weight="bold" fill="white">T</text>
    
    <rect x="550" y="0" width="40" height="40" rx="4" fill="#4ade80" opacity="0.8" />
    <text x="564" y="26" font-family="monospace" font-size="18" font-weight="bold" fill="white">A</text>
    
    <rect x="600" y="0" width="40" height="40" rx="4" fill="#facc15" opacity="0.8" />
    <text x="614" y="26" font-family="monospace" font-size="18" font-weight="bold" fill="white">G</text>
  </g>
  
  <!-- Feature cards -->
  <g transform="translate(40, 200)">
    <!-- Card 1 -->
    <rect x="0" y="0" width="220" height="110" rx="8" fill="#1e1e1e" />
    <text x="15" y="30" font-family="sans-serif" font-size="16" font-weight="bold" fill="#ffffff">
      Codon Visualization
    </text>
    <text x="15" y="55" font-family="sans-serif" font-size="12" fill="#9ca3af" width="200">
      Color-coded bases, start/stop 
    </text>
    <text x="15" y="75" font-family="sans-serif" font-size="12" fill="#9ca3af" width="200">
      codons highlighted
    </text>
  </g>
  
  <g transform="translate(280, 200)">
    <!-- Card 2 -->
    <rect x="0" y="0" width="220" height="110" rx="8" fill="#1e1e1e" />
    <text x="15" y="30" font-family="sans-serif" font-size="16" font-weight="bold" fill="#ffffff">
      Reading Frame Analysis
    </text>
    <text x="15" y="55" font-family="sans-serif" font-size="12" fill="#9ca3af">
      All three frames visualized
    </text>
    <text x="15" y="75" font-family="sans-serif" font-size="12" fill="#9ca3af">
      with ORF detection
    </text>
  </g>
  
  <g transform="translate(520, 200)">
    <!-- Card 3 -->
    <rect x="0" y="0" width="220" height="110" rx="8" fill="#1e1e1e" />
    <text x="15" y="30" font-family="sans-serif" font-size="16" font-weight="bold" fill="#ffffff">
      Primer Design Tool
    </text>
    <text x="15" y="55" font-family="sans-serif" font-size="12" fill="#9ca3af">
      Generate primers with 
    </text>
    <text x="15" y="75" font-family="sans-serif" font-size="12" fill="#9ca3af">
      customizable parameters
    </text>
  </g>
  
  <g transform="translate(40, 330)">
    <!-- Card 4 -->
    <rect x="0" y="0" width="220" height="110" rx="8" fill="#1e1e1e" />
    <text x="15" y="30" font-family="sans-serif" font-size="16" font-weight="bold" fill="#ffffff">
      Restriction Analysis
    </text>
    <text x="15" y="55" font-family="sans-serif" font-size="12" fill="#9ca3af">
      Enzyme database, gel 
    </text>
    <text x="15" y="75" font-family="sans-serif" font-size="12" fill="#9ca3af">
      electrophoresis simulation
    </text>
  </g>
  
  <g transform="translate(280, 330)">
    <!-- Card 5 -->
    <rect x="0" y="0" width="220" height="110" rx="8" fill="#1e1e1e" />
    <text x="15" y="30" font-family="sans-serif" font-size="16" font-weight="bold" fill="#ffffff">
      RNA Structure
    </text>
    <text x="15" y="55" font-family="sans-serif" font-size="12" fill="#9ca3af">
      Secondary structure 
    </text>
    <text x="15" y="75" font-family="sans-serif" font-size="12" fill="#9ca3af">
      prediction and visualization
    </text>
  </g>
  
  <g transform="translate(520, 330)">
    <!-- Card 6 -->
    <rect x="0" y="0" width="220" height="110" rx="8" fill="#1e1e1e" />
    <text x="15" y="30" font-family="sans-serif" font-size="16" font-weight="bold" fill="#ffffff">
      Export Options
    </text>
    <text x="15" y="55" font-family="sans-serif" font-size="12" fill="#9ca3af">
      FASTA, GenBank, JSON
    </text>
    <text x="15" y="75" font-family="sans-serif" font-size="12" fill="#9ca3af">
      and text formats
    </text>
  </g>
</svg>
